<svg id="Layer_1" data-name="Layer 1" xmlns="http://www.w3.org/2000/svg" viewBox="0 0 596.48 137.57"><g id="Layer_2" data-name="Layer 2"><g id="Layer_1-2" data-name="Layer 1-2"><path d="M227,101.39v78.67a2.35,2.35,0,0,1-2.34,2.35h-23a2.35,2.35,0,0,1-2.34-2.36l.13-40.21a2.47,2.47,0,0,1,.33-1.19l22.86-38.46A2.35,2.35,0,0,1,227,101.39Zm-85.2,65.94V140a2.35,2.35,0,0,1,.34-1.21l23-38.43a2.35,2.35,0,0,1,4.36,1.2v27.25a2.32,2.32,0,0,1-.34,1.2l-23,38.48A2.35,2.35,0,0,1,141.75,167.33ZM78.33,141l-3.07-27.75a2.35,2.35,0,0,0-4.39-.87L55.64,140.09a2.35,2.35,0,0,0,2,3.48H76A2.36,2.36,0,0,0,78.33,141Zm-72,37.9L60.93,87.08a2.34,2.34,0,0,1,2-1.14h31a2.33,2.33,0,0,1,2.31,2l8.59,52.4a2.39,2.39,0,0,1-.3,1.59l-17.9,29.9a2.34,2.34,0,0,1-4.33-.91l-.9-7a2.34,2.34,0,0,0-2.33-2H45A2.36,2.36,0,0,0,43,163L32.84,181.2a2.34,2.34,0,0,1-2.05,1.21H8.38A2.35,2.35,0,0,1,6.36,178.86Z" transform="translate(-6.03 -79.7)" style="fill:#1434cb"/></g></g><path d="M244.66,112.76v7.1a4.27,4.27,0,0,0,4.5,4.45H266c3.05,0,3.8-1.85,3.8-4V106.71h6.65v16.45a7.71,7.71,0,0,1-7.85,7.85H249.16A10.91,10.91,0,0,1,238,119.86v-7.1Zm9,28.15a4,4,0,0,1,7.9,0,4,4,0,0,1-7.9,0Z" transform="translate(-6.03 -79.7)" style="fill:#0f162c"/><path d="M297.26,131H293v.35a10.91,10.91,0,0,1-11.15,11.15h-2.45v-6.7h2.45a4.23,4.23,0,0,0,4.45-4.45v-24.5H293v17.45h4.25Z" transform="translate(-6.03 -79.7)" style="fill:#0f162c"/><path d="M326.11,124.31V131h-29.5l-2.9-1v-4.6l2.9-1h4.85a8.26,8.26,0,0,1-1.5-4.75v-2.85a11,11,0,0,1,11.45-11.4c6.8,0,11.5,4.85,11.5,11.4v2.85a7.94,7.94,0,0,1-1.55,4.75Zm-24.8-26.26a3.95,3.95,0,0,1,7.9,0,4,4,0,1,1-7.9,0Zm14.9,18.66a4.37,4.37,0,0,0-4.75-4.7c-3,0-4.85,1.8-4.85,4.7v2.85a5,5,0,0,0,4.95,4.75,4.54,4.54,0,0,0,4.65-4.75ZM312,98.05a4,4,0,1,1,3.95,4A4,4,0,0,1,312,98.05Z" transform="translate(-6.03 -79.7)" style="fill:#0f162c"/><path d="M343.46,99l-7.25,2.3V98.6l3.55-1.15a3.57,3.57,0,0,1-.65-2,3.65,3.65,0,0,1,7.3,0A3.74,3.74,0,0,1,343.46,99Zm.8-3.65a1.43,1.43,0,1,0-2.85,0,1.51,1.51,0,0,0,.75,1.35h0l.05.1a2.51,2.51,0,0,0,.6.1A1.44,1.44,0,0,0,344.26,95.35Z" transform="translate(-6.03 -79.7)" style="fill:#0f162c"/><path d="M354,116.61v2.85a11.3,11.3,0,0,1-11.1,11.4,13.39,13.39,0,0,1-8.2-2.75,8.59,8.59,0,0,1-6.6,2.9h-2.2l-2.9-1v-4.6l2.9-1h2.2a2.59,2.59,0,0,0,2.7-2.75v-5a11.11,11.11,0,0,1,11.35-11.4h.5A11.14,11.14,0,0,1,354,116.61Zm-6.7,0a4.4,4.4,0,0,0-4.65-4.7h-.5a4.44,4.44,0,0,0-4.7,4.7v5.1a6.85,6.85,0,0,0,5.45,2.45,4.57,4.57,0,0,0,4.4-4.7Z" transform="translate(-6.03 -79.7)" style="fill:#0f162c"/><path d="M417.66,96.2h6.7v28.41A6.32,6.32,0,0,1,418,131h-7.15a8.48,8.48,0,0,1-6.1-2.85,9.29,9.29,0,0,1-7.15,2.85H395a9.31,9.31,0,0,1-7.15-3.15,10.18,10.18,0,0,1-7.7,3,11.26,11.26,0,0,1-11.05-11.4v-2.85a11.1,11.1,0,0,1,11.3-11.4h11.9v16.35a2.56,2.56,0,0,0,2.7,2.75h2.65c3.05,0,3.7-1.85,3.7-4V110l-.05-10.7H408v18.3c0,.45,0,1-.05,1.55v1.15c0,2.2.75,4,3.75,4h4a2,2,0,0,0,2-2.15Zm-32.1,15.71h-5.2a4.38,4.38,0,0,0-4.6,4.7v2.85a4.57,4.57,0,0,0,4.35,4.7,6.78,6.78,0,0,0,5.45-2.45Zm12.7-20.31V90.5l2.5-.6v1.7a.8.8,0,0,0,.9.9c.55,0,.85-.35.85-1v-2.1l2.5-.7v2.4a.8.8,0,0,0,.9.85c.65,0,1-.35,1-1.15V88.1l2.5-.7v3.35c0,2.2-1.15,3.75-3.15,3.75a2.88,2.88,0,0,1-2.2-1,2.81,2.81,0,0,1-2.4,1.5A3.3,3.3,0,0,1,398.26,91.6ZM405,85.8l-2.5.75v-6.1l2.5-.75Zm32.31,10.4V131h-6.7V96.2Z" transform="translate(-6.03 -79.7)" style="fill:#0f162c"/><path d="M469.21,124.31V131h-26v-6.7h14V117a4.68,4.68,0,0,0-5-4.9h-5.55v-6.7h5.55a11.36,11.36,0,0,1,11.6,11.6v7.35Z" transform="translate(-6.03 -79.7)" style="fill:#0f162c"/><path d="M488.36,124.31V131h-3.8a8.68,8.68,0,0,1-6.15-2.85,9.21,9.21,0,0,1-7.15,2.85h-2.75l-2.9-1v-4.55l2.9-1.1h2.85c3.05,0,3.7-1.85,3.7-4V114l-.05-6.7h6.75v10.25c0,.5,0,1-.05,1.55v1.15c0,2.2.75,4,3.75,4Zm-6.1,16.5a3.93,3.93,0,1,1-3.9-3.9A3.95,3.95,0,0,1,482.26,140.81Z" transform="translate(-6.03 -79.7)" style="fill:#0f162c"/><path d="M512,124.31V131h-24.9l-2.9-1v-4.55l2.9-1.1h4.95a10.51,10.51,0,0,1-2.25-6.8c0-12.25,10.8-15.45,20.1-12.15v6.15c-7-2.6-12.65-.6-12.65,6.2,0,5.05,3.1,6.6,7.3,6.6Z" transform="translate(-6.03 -79.7)" style="fill:#0f162c"/><path d="M248.81,172.63l-2.35,7.8h-7.6l12.65-34.36h6.3l12.25,34.36h-7.85l-2.45-7.8Zm1.35-5.7h8.3l-4.1-12.85h-.1Z" transform="translate(-6.03 -79.7)" style="fill:#0f162c"/><path d="M280.11,180.38h-7V146.17h7.05v11.31a8.25,8.25,0,0,1,6.15-2.8c6.65,0,10,5.75,10,13s-2.95,13.1-9.6,13.1a9,9,0,0,1-6.55-3Zm.05-6.65a6.33,6.33,0,0,0,3.9,1.4c3.1,0,4.85-2.65,4.85-7.4s-1.75-7.35-4.85-7.35a6.33,6.33,0,0,0-3.9,1.4Z" transform="translate(-6.03 -79.7)" style="fill:#0f162c"/><path d="M308.91,180.83c-6.65,0-9.6-5.75-9.6-13.1s3.35-13,10-13a8.33,8.33,0,0,1,6.15,2.8V146.17h7.05v34.21h-7.05v-2.55A9.15,9.15,0,0,1,308.91,180.83Zm2.65-20.45c-3.1,0-4.85,2.6-4.85,7.35s1.75,7.4,4.85,7.4a6.46,6.46,0,0,0,3.9-1.4V161.78A6.46,6.46,0,0,0,311.56,160.38Z" transform="translate(-6.03 -79.7)" style="fill:#0f162c"/><path d="M349.31,155.33v25.1h-7.05v-2.2a11.78,11.78,0,0,1-7.8,2.7c-5,0-7.5-3-7.5-8.1v-17.5H334v15c0,2.4,1.05,3.75,3.55,3.75a8.41,8.41,0,0,0,4.7-1.85V155.33Z" transform="translate(-6.03 -79.7)" style="fill:#0f162c"/><path d="M354.36,180.38V146.32h7.05v34.06Z" transform="translate(-6.03 -79.7)" style="fill:#0f162c"/><path d="M367,180.38V146.32h7.05v34.06Z" transform="translate(-6.03 -79.7)" style="fill:#0f162c"/><path d="M381.76,160.68l-1.3-4.65c8.05-3.35,19.65-3.8,19.65,7.15v17.2h-7.05v-2.95a9.88,9.88,0,0,1-7.5,3.4c-4.25,0-6.65-3.2-6.65-7.1,0-5.8,5.3-9.45,14.15-9.2v-1.1C393.06,157.88,387.06,158.73,381.76,160.68Zm3.75,12.15c0,1.8,1.45,2.65,3.15,2.65a6.16,6.16,0,0,0,4.4-1.9v-5.1C387.71,167.93,385.51,170.88,385.51,172.83Z" transform="translate(-6.03 -79.7)" style="fill:#0f162c"/><path d="M404.56,180.38V146.32h7.05v10.81a12.23,12.23,0,0,1,7.1-2.55c4.65-.1,8.2,2.75,8.2,8.35v17.45h-7.05v-15c0-2.35-1.1-3.55-3.05-3.65a8.63,8.63,0,0,0-5.2,1.8v16.9Z" transform="translate(-6.03 -79.7)" style="fill:#0f162c"/><path d="M441.26,146.32h9.65l4.75,10.56,3.5,8.25,3.3-8.25,4.5-10.56h9.8v34.11h-7.7l.15-23-7.9,17.65H456l-7.9-17.65.2,23h-7.05Z" transform="translate(-6.03 -79.7)" style="fill:#0f162c"/><path d="M481.26,167.73c0-7.25,3.6-13,12-13s12,5.8,12,13-3.65,13.1-12,13.1S481.26,175,481.26,167.73Zm6.5,0c0,4.6,1.85,8.05,5.5,8.05s5.35-3.45,5.35-8.05-1.7-8-5.35-8S487.76,163.18,487.76,167.73Z" transform="translate(-6.03 -79.7)" style="fill:#0f162c"/><path d="M524.41,155.13h7.05v34.15h-7.05V178a8.33,8.33,0,0,1-6.15,2.8c-6.65,0-10-5.75-10-13.05s2.95-13.1,9.6-13.1a9.15,9.15,0,0,1,6.55,3Zm0,7.35a6.46,6.46,0,0,0-3.9-1.4c-3.1,0-4.85,2.65-4.85,6.65,0,4.75,1.75,7.35,4.85,7.35a6.46,6.46,0,0,0,3.9-1.4Z" transform="translate(-6.03 -79.7)" style="fill:#0f162c"/><path d="M538.61,160.68l-1.3-4.65c8.05-3.35,19.65-3.8,19.65,7.15v17.2h-7.05v-2.95a9.88,9.88,0,0,1-7.5,3.4c-4.25,0-6.65-3.2-6.65-7.1,0-5.8,5.3-9.45,14.15-9.2v-1.1C549.91,157.88,543.91,158.73,538.61,160.68Zm3.75,12.15c0,1.8,1.45,2.65,3.15,2.65a6.16,6.16,0,0,0,4.4-1.9v-5.1C544.56,167.93,542.36,170.88,542.36,172.83Z" transform="translate(-6.03 -79.7)" style="fill:#0f162c"/><path d="M561.46,180.38v-25h7v4.9h0a8.53,8.53,0,0,1,8.1-4.85v5.45c-3.25-.45-7.65,2.2-8.15,4.65v14.9Z" transform="translate(-6.03 -79.7)" style="fill:#0f162c"/><path d="M586.31,180.38h-7V146.17h7.05v11.31a8.25,8.25,0,0,1,6.15-2.8c6.65,0,10,5.75,10,13s-3,13.1-9.6,13.1a9,9,0,0,1-6.55-3Zm.05-6.65a6.33,6.33,0,0,0,3.9,1.4c3.1,0,4.85-2.65,4.85-7.4s-1.75-7.35-4.85-7.35a6.33,6.33,0,0,0-3.9,1.4Z" transform="translate(-6.03 -79.7)" style="fill:#0f162c"/><path d="M86.48,203.49h1.34l3.09,7.33,3.22-7.33h.24l3.24,7.33,3.16-7.33h1.35l-4.39,10.09h-.24l-3.23-7.23L91,213.58H90.8Z" transform="translate(-6.03 -79.7)" style="fill:#0f162c"/><path d="M112.15,203.49h1.34l3.09,7.33,3.22-7.33H120l3.24,7.33,3.16-7.33h1.35l-4.39,10.09h-.24l-3.23-7.23-3.22,7.23h-.24Z" transform="translate(-6.03 -79.7)" style="fill:#0f162c"/><path d="M137.82,203.49h1.34l3.09,7.33,3.22-7.33h.24l3.24,7.33,3.16-7.33h1.35l-4.39,10.09h-.24l-3.23-7.23-3.22,7.23h-.24Z" transform="translate(-6.03 -79.7)" style="fill:#0f162c"/><path d="M166.29,211.54a1.09,1.09,0,0,1,.8.33,1.11,1.11,0,0,1,.34.82,1.14,1.14,0,0,1-2,.81,1.1,1.1,0,0,1-.33-.81,1.14,1.14,0,0,1,.33-.82A1.1,1.1,0,0,1,166.29,211.54Z" transform="translate(-6.03 -79.7)" style="fill:#0f162c"/><path d="M190.06,203.49v10.09h-1.29v-1.73a5.45,5.45,0,0,1-1.83,1.49,5.12,5.12,0,0,1-5.88-1.05,5.23,5.23,0,0,1-1.52-3.78,5.1,5.1,0,0,1,1.53-3.73,5,5,0,0,1,3.69-1.55,4.67,4.67,0,0,1,2.25.53,5.05,5.05,0,0,1,1.76,1.58v-1.85Zm-5.2,1a3.9,3.9,0,0,0-3.46,2,4.09,4.09,0,0,0,0,4.08,3.88,3.88,0,0,0,1.47,1.51,3.82,3.82,0,0,0,2,.54,4.05,4.05,0,0,0,2-.53,3.79,3.79,0,0,0,1.46-1.46,4.07,4.07,0,0,0,.52-2.06,4,4,0,0,0-1.16-2.93A3.78,3.78,0,0,0,184.86,204.48Z" transform="translate(-6.03 -79.7)" style="fill:#0f162c"/><path d="M202.94,213.58v-14h1.3v5.63a5.37,5.37,0,0,1,1.83-1.5,5.14,5.14,0,0,1,5.87,1.06,5.2,5.2,0,0,1,1.51,3.77,5.12,5.12,0,0,1-1.53,3.74,5,5,0,0,1-3.68,1.55,4.62,4.62,0,0,1-2.23-.53,5.17,5.17,0,0,1-1.77-1.58v1.85Zm5.2-1a3.9,3.9,0,0,0,2-.54,3.85,3.85,0,0,0,1.45-1.49,4.14,4.14,0,0,0,0-4.09,4,4,0,0,0-1.47-1.52,3.82,3.82,0,0,0-2-.54,4.08,4.08,0,0,0-2,.54,3.75,3.75,0,0,0-1.47,1.46,4.18,4.18,0,0,0-.51,2.07,4,4,0,0,0,1.15,2.93A3.8,3.8,0,0,0,208.14,212.59Z" transform="translate(-6.03 -79.7)" style="fill:#0f162c"/><path d="M235.77,199.59v14h-1.28v-1.73a5.45,5.45,0,0,1-1.83,1.49,5,5,0,0,1-2.22.5,4.94,4.94,0,0,1-3.66-1.55,5.23,5.23,0,0,1-1.52-3.78,5.1,5.1,0,0,1,1.53-3.73,5,5,0,0,1,3.69-1.55,4.73,4.73,0,0,1,2.25.53,5.05,5.05,0,0,1,1.76,1.58v-5.75Zm-5.19,4.89a3.9,3.9,0,0,0-3.46,2,4.09,4.09,0,0,0,0,4.08,3.93,3.93,0,0,0,1.46,1.51,3.88,3.88,0,0,0,2,.54,4,4,0,0,0,2-.53,3.75,3.75,0,0,0,1.47-1.46,4.17,4.17,0,0,0,.52-2.06,4,4,0,0,0-1.16-2.93A3.8,3.8,0,0,0,230.58,204.48Z" transform="translate(-6.03 -79.7)" style="fill:#0f162c"/><path d="M248.43,203.49h1.3v4.71a10.47,10.47,0,0,0,.18,2.38A2.67,2.67,0,0,0,251,212a3.2,3.2,0,0,0,1.87.54,3.15,3.15,0,0,0,1.84-.53,2.6,2.6,0,0,0,1.05-1.37,9.86,9.86,0,0,0,.19-2.48v-4.71h1.33v4.95a7.78,7.78,0,0,1-.49,3.15,3.71,3.71,0,0,1-1.46,1.65,5.34,5.34,0,0,1-4.92,0,3.7,3.7,0,0,1-1.48-1.67,8.25,8.25,0,0,1-.48-3.22Z" transform="translate(-6.03 -79.7)" style="fill:#0f162c"/><path d="M269.83,199.59h1.3v14h-1.3Z" transform="translate(-6.03 -79.7)" style="fill:#0f162c"/><path d="M283.51,199.59h1.3v14h-1.3Z" transform="translate(-6.03 -79.7)" style="fill:#0f162c"/><path d="M307.45,203.49v10.09h-1.28v-1.73a5.65,5.65,0,0,1-1.83,1.49,5,5,0,0,1-2.23.5,5,5,0,0,1-3.66-1.55,5.22,5.22,0,0,1-1.51-3.78,5.1,5.1,0,0,1,1.53-3.73,5,5,0,0,1,3.68-1.55,4.67,4.67,0,0,1,2.25.53,5.17,5.17,0,0,1,1.77,1.58v-1.85Zm-5.19,1a3.9,3.9,0,0,0-3.46,2,4.11,4.11,0,0,0-.55,2,4.16,4.16,0,0,0,.55,2,4,4,0,0,0,1.47,1.51,3.83,3.83,0,0,0,2,.54,4,4,0,0,0,2-.53,3.89,3.89,0,0,0,1.47-1.46,4.17,4.17,0,0,0,.51-2.06,4,4,0,0,0-1.15-2.93A3.81,3.81,0,0,0,302.26,204.48Z" transform="translate(-6.03 -79.7)" style="fill:#0f162c"/><path d="M320.25,199.59h1.3v5.71a5.58,5.58,0,0,1,1.73-1.56,4.3,4.3,0,0,1,2.05-.51,3.58,3.58,0,0,1,2,.57,3.45,3.45,0,0,1,1.3,1.55,8.13,8.13,0,0,1,.42,3v5.19h-1.3v-4.81a12.5,12.5,0,0,0-.14-2.33,2.67,2.67,0,0,0-.88-1.51,2.57,2.57,0,0,0-1.66-.51,3.23,3.23,0,0,0-2.12.78,3.63,3.63,0,0,0-1.22,1.93,12.85,12.85,0,0,0-.19,2.75v3.7h-1.3Z" transform="translate(-6.03 -79.7)" style="fill:#0f162c"/><path d="M341.71,203.49H343v1.74a5,5,0,0,1,1.39-1.41,4,4,0,0,1,2.07-.59,3.54,3.54,0,0,1,1.4.28,3.16,3.16,0,0,1,1.07.77,4.25,4.25,0,0,1,.73,1.37,4.86,4.86,0,0,1,1.62-1.81,3.8,3.8,0,0,1,2.09-.61,3.18,3.18,0,0,1,1.84.53,3.1,3.1,0,0,1,1.19,1.47,7.86,7.86,0,0,1,.39,2.84v5.51h-1.32v-5.51a7.32,7.32,0,0,0-.23-2.23,2,2,0,0,0-.8-1,2.31,2.31,0,0,0-1.33-.37,2.88,2.88,0,0,0-1.73.56,3.18,3.18,0,0,0-1.14,1.48,9.43,9.43,0,0,0-.36,3.1v4h-1.3v-5.17a9.06,9.06,0,0,0-.22-2.48,2.19,2.19,0,0,0-.8-1.05,2.3,2.3,0,0,0-1.34-.39,3,3,0,0,0-1.69.54,3.23,3.23,0,0,0-1.16,1.46,7.94,7.94,0,0,0-.37,2.81v4.28h-1.3Z" transform="translate(-6.03 -79.7)" style="fill:#0f162c"/><path d="M374.2,203.23a5,5,0,0,1,3.86,1.69,5.41,5.41,0,0,1-.07,7.34,5.35,5.35,0,0,1-7.59,0,5.43,5.43,0,0,1-.08-7.34A5,5,0,0,1,374.2,203.23Zm0,1.27a3.74,3.74,0,0,0-2.78,1.2,4,4,0,0,0-1.16,2.89,4,4,0,0,0,.53,2,3.72,3.72,0,0,0,1.43,1.46,3.85,3.85,0,0,0,2,.52,3.92,3.92,0,0,0,2-.52,3.72,3.72,0,0,0,1.43-1.46,4.14,4.14,0,0,0,.53-2A4,4,0,0,0,377,205.7,3.74,3.74,0,0,0,374.19,204.5Z" transform="translate(-6.03 -79.7)" style="fill:#0f162c"/><path d="M401.79,203.49v13.78h-1.28v-5.42a5.65,5.65,0,0,1-1.83,1.49,5,5,0,0,1-2.23.5,5,5,0,0,1-3.66-1.55,5.22,5.22,0,0,1-1.51-3.78,5.1,5.1,0,0,1,1.53-3.73,5,5,0,0,1,3.68-1.55,4.67,4.67,0,0,1,2.25.53,5.17,5.17,0,0,1,1.77,1.58v-1.85Zm-5.19,1a4,4,0,0,0-2,.53,3.9,3.9,0,0,0-1.46,1.5,4.11,4.11,0,0,0-.55,2,4.16,4.16,0,0,0,.55,2,4,4,0,0,0,1.47,1.51,3.83,3.83,0,0,0,2,.54,4,4,0,0,0,2-.53,3.82,3.82,0,0,0,1.47-1.46,4.17,4.17,0,0,0,.51-2.06,4,4,0,0,0-1.15-2.93A3.81,3.81,0,0,0,396.6,204.48Z" transform="translate(-6.03 -79.7)" style="fill:#0f162c"/><path d="M414.09,203.49h1.33V205a4.59,4.59,0,0,1,1.25-1.3,2.46,2.46,0,0,1,1.37-.43,2.35,2.35,0,0,1,1.15.34l-.68,1.1a1.76,1.76,0,0,0-.68-.18,1.9,1.9,0,0,0-1.25.53,3.34,3.34,0,0,0-.92,1.66,16,16,0,0,0-.24,3.49v3.41h-1.33Z" transform="translate(-6.03 -79.7)" style="fill:#0f162c"/><path d="M438.67,210.23l1.1.58a5.82,5.82,0,0,1-1.25,1.7,4.78,4.78,0,0,1-1.58,1,5.48,5.48,0,0,1-2,.34,4.81,4.81,0,0,1-3.86-1.62,5.51,5.51,0,0,1-.22-7.08,4.81,4.81,0,0,1,4-1.91,5,5,0,0,1,4.12,2,5.49,5.49,0,0,1,1.11,3.46H431a4.1,4.1,0,0,0,1.12,2.88,3.59,3.59,0,0,0,2.69,1.12,4.55,4.55,0,0,0,1.5-.26,4,4,0,0,0,1.24-.72A5.76,5.76,0,0,0,438.67,210.23Zm0-2.72a4.33,4.33,0,0,0-.75-1.66,3.64,3.64,0,0,0-1.32-1,4.07,4.07,0,0,0-1.72-.38,3.68,3.68,0,0,0-2.55,1,4.34,4.34,0,0,0-1.18,2.08Z" transform="translate(-6.03 -79.7)" style="fill:#0f162c"/><path d="M452.49,213.58v-14h1.3v5.63a5.43,5.43,0,0,1,1.82-1.5,5.14,5.14,0,0,1,5.87,1.06,5.21,5.21,0,0,1,1.52,3.77,5.12,5.12,0,0,1-1.53,3.74,5,5,0,0,1-3.68,1.55,4.59,4.59,0,0,1-2.23-.53,5.17,5.17,0,0,1-1.77-1.58v1.85Zm5.19-1a4,4,0,0,0,3.46-2,4.14,4.14,0,0,0,0-4.09,4.05,4.05,0,0,0-1.47-1.52,3.84,3.84,0,0,0-2-.54,4.05,4.05,0,0,0-2,.54,3.75,3.75,0,0,0-1.47,1.46,4.18,4.18,0,0,0-.52,2.07,4,4,0,0,0,1.16,2.93A3.77,3.77,0,0,0,457.68,212.59Z" transform="translate(-6.03 -79.7)" style="fill:#0f162c"/><path d="M476.67,211.54a1.1,1.1,0,0,1,.81.33,1.15,1.15,0,0,1,.34.82,1.11,1.11,0,0,1-.34.81,1.15,1.15,0,0,1-2-.81,1.11,1.11,0,0,1,.34-.82A1.09,1.09,0,0,1,476.67,211.54Z" transform="translate(-6.03 -79.7)" style="fill:#0f162c"/><path d="M500.18,205.58l-1,.64a4.31,4.31,0,0,0-3.64-1.77,4.21,4.21,0,0,0-3.06,1.19,3.84,3.84,0,0,0-1.22,2.88,4.13,4.13,0,0,0,.56,2.08,3.92,3.92,0,0,0,1.54,1.51,4.67,4.67,0,0,0,5.82-1.24l1,.68a4.83,4.83,0,0,1-1.94,1.69,6.24,6.24,0,0,1-2.78.6,5.49,5.49,0,0,1-4-1.52,5,5,0,0,1-1.58-3.7,5.33,5.33,0,0,1,.74-2.73,5.24,5.24,0,0,1,2-2,5.9,5.9,0,0,1,2.88-.7,6.34,6.34,0,0,1,1.94.3,5.57,5.57,0,0,1,1.58.8A4.44,4.44,0,0,1,500.18,205.58Z" transform="translate(-6.03 -79.7)" style="fill:#0f162c"/><path d="M517.33,203.23a5,5,0,0,1,3.87,1.69,5.4,5.4,0,0,1-.08,7.34,5.34,5.34,0,0,1-7.58,0,5.43,5.43,0,0,1-.08-7.34A5,5,0,0,1,517.33,203.23Zm0,1.27a3.73,3.73,0,0,0-2.78,1.2,4,4,0,0,0-1.17,2.89,4.14,4.14,0,0,0,.53,2,3.81,3.81,0,0,0,1.44,1.46,4,4,0,0,0,4,0,3.74,3.74,0,0,0,1.44-1.46,4.14,4.14,0,0,0,.53-2,4,4,0,0,0-1.17-2.89A3.76,3.76,0,0,0,517.33,204.5Z" transform="translate(-6.03 -79.7)" style="fill:#0f162c"/><path d="M534.87,203.49h1.3v1.74a5,5,0,0,1,1.39-1.41,4,4,0,0,1,2.07-.59,3.5,3.5,0,0,1,1.4.28,3,3,0,0,1,1.07.77,4.25,4.25,0,0,1,.73,1.37,4.86,4.86,0,0,1,1.62-1.81,3.83,3.83,0,0,1,2.09-.61,3.24,3.24,0,0,1,1.85.53,3.16,3.16,0,0,1,1.19,1.47,8.13,8.13,0,0,1,.38,2.84v5.51h-1.32v-5.51a7.32,7.32,0,0,0-.23-2.23,2.05,2.05,0,0,0-.79-1,2.36,2.36,0,0,0-1.34-.37,2.88,2.88,0,0,0-1.73.56,3.18,3.18,0,0,0-1.14,1.48,9.43,9.43,0,0,0-.36,3.1v4h-1.3v-5.17a9.06,9.06,0,0,0-.22-2.48,2.19,2.19,0,0,0-.8-1.05,2.28,2.28,0,0,0-1.34-.39,3,3,0,0,0-1.69.54,3.23,3.23,0,0,0-1.16,1.46,7.94,7.94,0,0,0-.37,2.81v4.28h-1.3Z" transform="translate(-6.03 -79.7)" style="fill:#0f162c"/><path d="M141.49,85.91,85.16,180a2.37,2.37,0,0,0,2,3.59h23.12a2.35,2.35,0,0,0,2-1.15l56.29-94.1a2.37,2.37,0,0,0-2-3.58H143.52A2.36,2.36,0,0,0,141.49,85.91Z" transform="translate(-6.03 -79.7)" style="fill:#0f162c;fill-rule:evenodd"/><path d="M198.42,85.91,142.09,180a2.38,2.38,0,0,0,2,3.6h23.05a2.37,2.37,0,0,0,2-1.16l56.32-94.08a2.37,2.37,0,0,0-2-3.59h-23A2.4,2.4,0,0,0,198.42,85.91Z" transform="translate(-6.03 -79.7)" style="fill:#0f162c;fill-rule:evenodd"/></svg>